<?xml version="1.0" encoding="UTF-8"?>
<svg id="Layer_1" data-name="Layer 1" xmlns="http://www.w3.org/2000/svg" version="1.1" viewBox="0 0 1440 194.7">
  <defs>
    <style>
      .cls-1 {
        fill: #fff;
        stroke-width: 0px;
      }
    </style>
  </defs>
  <path class="cls-1" d="M0,43.3l26.7-7.2c26.6-7,80.3-21.8,133.3-10.8,53.3,10.6,107,47.1,160,57.7,53.3,11,107-3.9,160,3.6,53.3,7.4,107,35.8,160,32.4,53.3-3.4,107-39.9,160-61.3,53.3-21.8,107-28.6,160-28.8,53.3.2,107,7,160,18,53.3,10.6,107,25.5,160,18,53.3-7.4,107-35.8,133-50.5l27-14.4v194.7H0V43.3Z"/>
</svg>